<svg width="17" height="20" viewBox="0 0 17 20" fill="none" xmlns="http://www.w3.org/2000/svg">
<path d="M11.9433 0C15.0176 0 16.9769 1.43503 16.9769 4.25765V18.3309C16.9769 18.7736 16.8047 19.1982 16.4982 19.5112C16.1918 19.8242 15.7761 20 15.3314 20C15.0661 19.9957 14.8054 19.9291 14.5539 19.7971L8.92004 16.6635L3.30896 19.8037C2.63316 20.1624 1.81426 19.9969 1.30116 19.3975L1.20275 19.2719L1.10874 19.1174C0.986061 18.8782 0.919875 18.613 0.915375 18.3309V4.43434C0.915375 1.49929 2.83186 0 5.949 0H11.9433ZM11.9433 1.44775H5.949C3.5447 1.44775 2.33286 2.39579 2.33286 4.43434L2.33276 18.3189C2.33348 18.3631 2.34431 18.4065 2.33253 18.3897L2.37014 18.4519C2.43493 18.5421 2.55651 18.5715 2.6416 18.5265L8.25031 15.3883C8.66835 15.1576 9.17204 15.1576 9.59212 15.3894L15.2164 18.5173C15.259 18.5397 15.306 18.5517 15.3426 18.5523C15.4001 18.5523 15.4553 18.529 15.4959 18.4875C15.5366 18.446 15.5594 18.3897 15.5594 18.3309V4.25765C15.5594 2.35788 14.3168 1.44775 11.9433 1.44775ZM12.3671 6.31663C12.7586 6.31663 13.0759 6.64072 13.0759 7.0405C13.0759 7.40697 12.8092 7.70984 12.4633 7.75777L12.3671 7.76438H5.47326C5.08184 7.76438 4.76452 7.44029 4.76452 7.0405C4.76452 6.67404 5.03115 6.37117 5.37709 6.32324L5.47326 6.31663H12.3671Z" fill="#200E32"/>
</svg>
