<svg width="25" height="24" viewBox="0 0 25 24" fill="none" xmlns="http://www.w3.org/2000/svg">
<path d="M12.3736 2.00008C16.5431 2.03077 20.2611 4.61803 21.719 8.50387C23.1769 12.3901 22.0714 16.7681 18.9405 19.5079C15.81 22.2473 11.3044 22.7804 7.61525 20.848L7.56927 20.8319C7.5621 20.8278 7.56094 20.8242 7.5594 20.8194L6.87424 20.4332C6.73469 20.3763 6.58006 20.3671 6.48565 20.3909C5.77342 20.646 5.0455 20.8554 4.30637 21.018L4.17088 21.0343C3.35721 21.0523 2.94724 20.5263 2.94724 19.7609L2.96686 19.597C3.15163 18.8357 3.3832 18.0865 3.64675 17.3927C3.68763 17.2613 3.67402 17.1192 3.60347 16.9875L3.41894 16.6292C1.78793 13.5227 1.91093 9.79358 3.74313 6.8001C5.5751 3.80701 8.84845 1.98613 12.3736 2.00008ZM12.3639 3.39463L12.082 3.39903C9.15823 3.48236 6.46635 5.03121 4.93907 7.52649C3.36275 10.1019 3.25694 13.3099 4.66268 15.9874L4.8443 16.3402C5.08586 16.7905 5.1364 17.3183 4.97113 17.8451C4.71429 18.5246 4.49963 19.2192 4.32834 19.9249L4.42314 19.557L4.81939 19.4541C4.9554 19.4168 5.09176 19.3775 5.22882 19.3361L5.64253 19.2055L6.06276 19.0617C6.50666 18.9399 6.97863 18.9681 7.44357 19.159C7.54116 19.2059 7.66226 19.271 7.81491 19.3569L8.23885 19.5993C8.24603 19.6012 8.25232 19.6029 8.25712 19.6042L8.24474 19.6026L8.53358 19.7468C11.5707 21.2076 15.189 20.778 17.795 18.6466L18.0161 18.4596C20.7101 16.1021 21.6612 12.3357 20.4069 8.99235C19.1524 5.64861 15.9524 3.42182 12.3639 3.39463Z" fill="#200E32"/>
</svg>
