<svg width="14" height="14" viewBox="0 0 14 14" fill="none" xmlns="http://www.w3.org/2000/svg">
<path fill-rule="evenodd" clip-rule="evenodd" d="M9.76258 0.333344C12.0279 0.333344 13.5504 1.91401 13.5504 4.26601V9.70068C13.5504 12.0527 12.0279 13.6333 9.76258 13.6333H3.97374C1.71173 13.6333 0.192581 12.0527 0.192581 9.70068V4.26601C0.192581 1.91401 1.71173 0.333344 3.97374 0.333344H9.76258ZM9.76258 1.33334H3.97374C2.2866 1.33334 1.19643 2.48468 1.19643 4.26601V9.70068C1.19643 11.4827 2.2866 12.6333 3.97374 12.6333H9.76258C11.4537 12.6333 12.5466 11.4827 12.5466 9.70068V4.26601C12.5466 2.48468 11.4537 1.33334 9.76258 1.33334ZM10.1902 7.06628C10.1945 7.06971 10.1986 7.07313 10.2073 7.08124L10.2203 7.09353C10.2229 7.09606 10.2258 7.09884 10.2289 7.10193L10.2663 7.13888C10.387 7.25926 10.7206 7.59865 11.7147 8.61561C11.9081 8.81294 11.9048 9.12961 11.706 9.32228C11.5079 9.51628 11.1894 9.51028 10.996 9.31294C10.996 9.31294 9.62472 7.91094 9.52701 7.81628C9.42328 7.73161 9.25664 7.68228 9.09268 7.69828C8.92604 7.71494 8.77614 7.79428 8.66973 7.92294C7.11444 9.80228 7.0957 9.82028 7.07027 9.84494C6.49607 10.4063 5.56918 10.3969 5.00502 9.82361C5.00502 9.82361 4.38263 9.19428 4.37193 9.18161C4.21733 9.03894 3.94161 9.04828 3.77631 9.22228L2.75239 10.2976C2.65334 10.4016 2.52083 10.4536 2.38833 10.4536C2.26385 10.4536 2.14004 10.4083 2.043 10.3163C1.84157 10.1269 1.83353 9.80961 2.02427 9.61028L3.04685 8.53494C3.58826 7.96228 4.50176 7.93428 5.0793 8.47428L5.72043 9.12228C5.89911 9.30228 6.18956 9.30561 6.36891 9.12961C6.4365 9.05028 7.89409 7.28694 7.89409 7.28694C8.17115 6.95228 8.56198 6.74561 8.99631 6.70294C9.43131 6.66494 9.8536 6.79094 10.1902 7.06628ZM4.58153 3.41928C5.50641 3.41994 6.25795 4.16928 6.25795 5.08861C6.25795 6.00928 5.50574 6.75861 4.58153 6.75861C3.65732 6.75861 2.90578 6.00928 2.90578 5.08861C2.90578 4.16794 3.65732 3.41928 4.58153 3.41928ZM4.58086 4.41928C4.21078 4.41928 3.90962 4.71928 3.90962 5.08861C3.90962 5.45794 4.21078 5.75861 4.58153 5.75861C4.95228 5.75861 5.25411 5.45794 5.25411 5.08861C5.25411 4.71994 4.95228 4.41994 4.58086 4.41928Z" fill="black" fill-opacity="0.46"/>
</svg>
