<svg width="22" height="21" viewBox="0 0 22 21" fill="none" xmlns="http://www.w3.org/2000/svg">
<path d="M19.5829 9.96974V17.4846H16.2371L16.0681 17.5035C12.9619 18.1923 10.9036 18.6889 9.87778 18.9966C8.51516 19.405 8.00722 19.5048 7.08298 19.5636C6.39173 19.6087 5.60662 19.3557 5.24885 19.0092C5.05119 18.8181 4.90323 18.4254 4.8447 17.8164C4.83258 17.6887 4.78457 17.5664 4.70569 17.4624C4.62682 17.3584 4.51999 17.2765 4.39638 17.2252C4.12143 17.1118 3.89285 16.927 3.70182 16.6582C3.52515 16.4125 3.41031 15.9547 3.38932 15.2922C3.38564 15.1704 3.34932 15.0515 3.28382 14.9468C3.21831 14.842 3.12578 14.7549 3.01499 14.6937C2.37233 14.3398 2.05431 13.9408 1.98805 13.4725C1.91518 12.9549 2.09185 12.3721 2.55453 11.7085C2.66308 11.5529 2.70351 11.3631 2.66722 11.1796C2.63093 10.9961 2.52077 10.8332 2.36018 10.7257C1.91738 10.4296 1.67445 10.018 1.61372 9.43424C1.51655 8.50394 2.14044 7.81619 3.55275 7.67864C4.81061 7.56034 6.08062 7.66104 7.30051 7.97579C7.43889 8.01018 7.58472 8.00627 7.72084 7.96452C7.85697 7.92277 7.97772 7.84493 8.0689 7.74014C8.16007 7.63535 8.21788 7.50798 8.23551 7.37302C8.25314 7.23805 8.22987 7.10111 8.16844 6.97829C7.61632 5.86739 7.30934 4.95074 7.23757 4.24094C7.14371 3.29909 7.37229 2.61659 7.90673 2.05379C8.31199 1.62749 8.96017 1.38389 9.2031 1.43429C9.52333 1.49939 9.73203 1.67579 10.0037 2.29319C10.1638 2.65859 10.2411 2.96939 10.3736 3.69494C10.5006 4.38374 10.5701 4.69454 10.7148 5.10194C11.151 6.33674 12.221 7.61669 13.6576 8.49974C14.6644 9.11789 15.7556 9.60189 16.9007 9.93824C16.9722 9.95921 17.0467 9.96983 17.1215 9.96974H19.5829V9.96974ZM19.6292 18.9157C19.9859 18.9252 20.3061 18.8496 20.5745 18.6711C20.9168 18.4432 21.078 18.0841 21.0813 17.6704L21.078 9.98129C21.1155 9.57179 20.9886 9.19589 20.6882 8.91659C20.4066 8.65409 20.0389 8.53019 19.6502 8.53859H17.2375C16.2615 8.24288 15.331 7.82555 14.4703 7.29749C13.313 6.58559 12.4606 5.56499 12.1348 4.64519C12.0233 4.32809 11.9637 4.06559 11.851 3.44819C11.6987 2.61974 11.6037 2.23439 11.3851 1.73879C10.9323 0.707689 10.3382 0.203689 9.51891 0.0346388C8.71282 -0.131261 7.53902 0.310789 6.79698 1.09199C5.97433 1.95719 5.61104 3.03974 5.74575 4.37744C5.80317 4.95284 5.97102 5.59649 6.24707 6.31364C5.30431 6.18299 4.34821 6.16325 3.40037 6.25484C1.18418 6.47009 -0.0602935 7.84244 0.1208 9.57704C0.200305 10.3246 0.485198 10.9599 0.969955 11.4586C0.562494 12.2052 0.400172 12.9433 0.501761 13.6636C0.61881 14.4931 1.10467 15.184 1.91297 15.7206C1.97591 16.4482 2.15148 17.0289 2.46287 17.4636C2.70823 17.8148 3.02837 18.1131 3.40257 18.3393C3.52183 19.0575 3.77249 19.6192 4.18216 20.014C4.86126 20.6713 6.07481 21.063 7.18346 20.9916C8.23579 20.9244 8.85858 20.8026 10.3272 20.3616C11.2956 20.0707 13.3009 19.5877 16.3232 18.9157H19.6304H19.6292ZM17.751 9.64319C17.7512 9.54925 17.732 9.45618 17.6944 9.36931C17.6568 9.28244 17.6016 9.20348 17.5318 9.13696C17.4621 9.07043 17.3792 9.01765 17.2879 8.98164C17.1967 8.94562 17.0989 8.92709 17.0001 8.92709C16.9015 8.92736 16.8039 8.9461 16.7129 8.98224C16.6219 9.01838 16.5393 9.0712 16.4698 9.1377C16.4002 9.20419 16.3452 9.28306 16.3077 9.36979C16.2703 9.45652 16.2511 9.54942 16.2514 9.64319V17.7051C16.2513 17.7989 16.2705 17.8917 16.3081 17.9784C16.3457 18.0651 16.4009 18.1439 16.4706 18.2103C16.5402 18.2767 16.6229 18.3294 16.7139 18.3654C16.805 18.4014 16.9026 18.42 17.0012 18.4201C17.0998 18.42 17.1974 18.4014 17.2884 18.3654C17.3795 18.3294 17.4622 18.2767 17.5318 18.2103C17.6014 18.1439 17.6566 18.0651 17.6942 17.9784C17.7318 17.8917 17.7511 17.7989 17.751 17.7051V9.64319V9.64319Z" fill="black"/>
</svg>
