<svg width="21" height="20" viewBox="0 0 21 20" fill="none" xmlns="http://www.w3.org/2000/svg">
<path d="M20.2073 2.59145L20.1706 2.73242L15.5076 18.3719C15.0447 19.9229 13.0147 20.2328 12.0979 18.9533L12.0101 18.8201L8.09931 12.366L1.59887 8.38014C0.217108 7.53277 0.443457 5.48602 1.9187 4.93295L2.07037 4.88272L17.7871 0.326986C19.2079 -0.0826113 20.5201 1.18579 20.2073 2.59145ZM18.28 1.75314L18.2068 1.76756L2.49058 6.32313C2.16344 6.41772 2.08307 6.83643 2.32182 7.05309L2.38819 7.10274L8.53599 10.872L13.8015 5.59253C14.0679 5.32538 14.4861 5.29979 14.7815 5.51667L14.8662 5.589C15.1344 5.85438 15.1601 6.27096 14.9424 6.5653L14.8697 6.64966L9.59705 11.936L13.2992 18.045C13.4755 18.3359 13.8878 18.3068 14.0336 18.0214L14.0642 17.9447L18.7273 2.30464C18.8176 2.00303 18.5699 1.72213 18.28 1.75314Z" fill="#200E32"/>
</svg>
