<svg width="13" height="15" viewBox="0 0 13 15" fill="none" xmlns="http://www.w3.org/2000/svg">
<path fill-rule="evenodd" clip-rule="evenodd" d="M11.9554 6.53392C12.2332 6.53392 12.4574 6.75792 12.4574 7.03392C12.4574 10.0954 10.0986 12.6156 7.10373 12.8713L7.10353 14.5C7.10353 14.776 6.87867 15 6.6016 15C6.32454 15 6.09968 14.776 6.09968 14.5L6.10014 12.8713C3.10496 12.616 0.745834 10.0956 0.745834 7.03392C0.745834 6.75792 0.970696 6.53392 1.24776 6.53392C1.52549 6.53392 1.74968 6.75792 1.74968 7.03392C1.74968 9.71259 3.92602 11.8926 6.6016 11.8926C9.27719 11.8926 11.4535 9.71259 11.4535 7.03392C11.4535 6.75792 11.6784 6.53392 11.9554 6.53392ZM6.6016 0.666656C8.37707 0.666656 9.82194 2.11132 9.82194 3.88732V7.01266C9.82194 8.78799 8.37707 10.2327 6.6016 10.2327C4.82613 10.2327 3.38127 8.78799 3.38127 7.01266V3.88732C3.38127 2.11132 4.82613 0.666656 6.6016 0.666656ZM6.6016 1.66666C5.37959 1.66666 4.38511 2.66266 4.38511 3.88732V7.01266C4.38511 8.23599 5.37959 9.23266 6.6016 9.23266C7.82362 9.23266 8.8181 8.23599 8.8181 7.01266V3.88732C8.8181 2.66266 7.82362 1.66666 6.6016 1.66666Z" fill="black" fill-opacity="0.46"/>
</svg>
