<svg width="24" height="24" viewBox="0 0 24 24" fill="none" xmlns="http://www.w3.org/2000/svg">
<path fill-rule="evenodd" clip-rule="evenodd" d="M22.8184 15.1911C23.3002 15.2273 23.6607 15.6484 23.6245 16.1303L23.4029 19.0574C23.2197 21.4724 21.1816 23.3636 18.7607 23.3636H5.22739C2.80655 23.3636 0.768385 21.4724 0.585219 19.0574L0.363552 16.1303C0.327385 15.6484 0.689052 15.2273 1.17089 15.1911C1.65505 15.1736 2.07272 15.5154 2.11005 15.9984L2.33055 18.9244C2.44489 20.4318 3.71655 21.6136 5.22739 21.6136H18.7607C20.2716 21.6136 21.5444 20.4318 21.6576 18.9244L21.8792 15.9984C21.9165 15.5154 22.3447 15.1724 22.8184 15.1911ZM13.4993 0.333496C15.2527 0.333496 16.7054 1.64747 16.9241 3.34236L19.2219 3.34338C21.6672 3.34338 23.6552 5.33721 23.6552 7.78955V11.8017C23.6552 12.1132 23.4896 12.4002 23.2224 12.5565C20.3427 14.243 16.6948 15.2266 12.8689 15.3578L12.8693 17.4562C12.8693 17.9392 12.4773 18.3312 11.9943 18.3312C11.5113 18.3312 11.1193 17.9392 11.1193 17.4562L11.1185 15.3581C7.29645 15.2281 3.64825 14.2442 0.766402 12.5565C0.498069 12.4002 0.333569 12.1132 0.333569 11.8017V7.77788C0.333569 5.33255 2.3274 3.34338 4.77857 3.34338L7.06443 3.34236C7.28322 1.64747 8.73586 0.333496 10.4893 0.333496H13.4993ZM19.2219 5.09338H4.77857C3.29223 5.09338 2.08357 6.29738 2.08357 7.77788V11.2919C4.8529 12.7966 8.34417 13.6213 11.9781 13.6229L11.9943 13.6214L12.0072 13.6218L12.5627 13.616C15.9995 13.5342 19.278 12.7188 21.9052 11.2919V7.78955C21.9052 6.30205 20.7024 5.09338 19.2219 5.09338ZM13.4993 2.0835H10.4893C9.70372 2.0835 9.04059 2.61815 8.84469 3.34265H15.1439C14.948 2.61815 14.2849 2.0835 13.4993 2.0835Z" fill="black" fill-opacity="0.6"/>
</svg>
